<svg width="220" height="217" viewBox="0 0 220 217" fill="none" xmlns="http://www.w3.org/2000/svg">
<path d="M109.514 157.391V51.9833H132.919V98.4594H134.379L174.216 51.9833H202.271L161.189 99.18L202.757 157.391H174.758L144.433 114.054L132.919 127.436V157.391H109.514Z" fill="#EBD0D0"/>
<g opacity="0.43" filter="url(#filter0_f_115_2)">
<path d="M128.018 130.007C129.74 136.85 129.884 143.967 128.441 150.868C126.997 157.768 123.999 164.289 119.654 169.981C115.309 175.672 109.72 180.399 103.272 183.837C96.8239 187.275 89.67 189.34 82.303 189.892C74.9359 190.444 67.5308 189.469 60.5975 187.035C53.6642 184.6 47.3674 180.763 42.1409 175.789C36.9145 170.814 32.8824 164.82 30.3224 158.22C27.7625 151.619 26.7355 144.569 27.3121 137.554L54.5545 139.584C54.286 142.85 54.7642 146.133 55.9561 149.207C57.1482 152.28 59.0255 155.071 61.4591 157.386C63.8926 159.703 66.8245 161.49 70.0528 162.623C73.2811 163.757 76.729 164.211 80.1592 163.954C83.5894 163.697 86.9205 162.734 89.9228 161.134C92.925 159.533 95.5273 157.332 97.5505 154.682C99.5736 152.033 100.969 148.996 101.642 145.784C102.314 142.57 102.247 139.256 101.445 136.071L128.018 130.007Z" fill="url(#paint0_radial_115_2)"/>
</g>
<g opacity="0.43" filter="url(#filter1_f_115_2)">
<path d="M191.459 48.6894C191.459 56.3075 189.581 63.8192 185.978 70.6207C182.374 77.4221 177.145 83.3236 170.709 87.8504C164.274 92.3771 156.813 95.4031 148.927 96.6848C141.04 97.9664 132.947 97.4681 125.3 95.2299L134.044 68.143C137.24 69.0786 140.624 69.2868 143.92 68.7511C147.217 68.2154 150.335 66.9506 153.025 65.0584C155.714 63.1662 157.9 60.6995 159.407 57.8565C160.914 55.0136 161.699 51.8737 161.699 48.6894H191.459Z" fill="url(#paint1_radial_115_2)"/>
</g>
<path d="M91.2322 68.1444H114.548V142.216C114.548 149.063 112.932 155.011 109.7 160.06C106.504 165.108 102.055 168.998 96.3529 171.731C90.6511 174.462 84.0232 175.828 76.4691 175.828C69.7504 175.828 63.649 174.704 58.1651 172.456C52.7174 170.174 48.3957 166.716 45.1997 162.082C42.0038 157.414 40.4239 151.553 40.4602 144.499H63.9396C64.0122 147.299 64.6114 149.703 65.7373 151.708C66.8994 153.679 68.4793 155.201 70.4768 156.272C72.5105 157.311 74.9075 157.829 77.6676 157.829C80.573 157.829 83.0245 157.242 85.0219 156.065C87.0557 154.855 88.5992 153.092 89.6525 150.775C90.7056 148.457 91.2322 145.605 91.2322 142.216V68.1444Z" fill="#B691FD"/>
<g style="mix-blend-mode:plus-lighter" opacity="0.04" filter="url(#filter2_dd_115_2)">
<path d="M109.513 157.391V51.9833H132.919V98.4594H134.378L174.216 51.9833H202.27L161.189 99.18L202.757 157.391H174.757L144.433 114.054L132.919 127.436V157.391H109.513Z" fill="#EBD0D0"/>
<g opacity="0.43" filter="url(#filter3_f_115_2)">
<path d="M128.019 130.007C129.741 136.85 129.884 143.968 128.441 150.868C126.997 157.768 123.999 164.289 119.654 169.981C115.309 175.672 109.72 180.4 103.272 183.837C96.824 187.275 89.6701 189.34 82.3031 189.892C74.9361 190.444 67.531 189.469 60.5976 187.035C53.6643 184.6 47.3676 180.763 42.1411 175.789C36.9146 170.815 32.8825 164.82 30.3226 158.22C27.7626 151.62 26.7356 144.569 27.3122 137.554L54.5547 139.584C54.2861 142.85 54.7643 146.134 55.9562 149.207C57.1483 152.28 59.0257 155.071 61.4592 157.387C63.8928 159.703 66.8246 161.49 70.0529 162.623C73.2812 163.757 76.7291 164.211 80.1593 163.954C83.5895 163.697 86.9206 162.734 89.9229 161.134C92.9252 159.533 95.5275 157.332 97.5506 154.683C99.5737 152.033 100.97 148.996 101.642 145.784C102.314 142.57 102.247 139.256 101.446 136.071L128.019 130.007Z" fill="url(#paint2_radial_115_2)"/>
</g>
<g opacity="0.43" filter="url(#filter4_f_115_2)">
<path d="M191.459 48.6893C191.459 56.3074 189.582 63.8191 185.978 70.6206C182.374 77.422 177.145 83.3235 170.709 87.8503C164.275 92.377 156.814 95.403 148.927 96.6847C141.04 97.9663 132.948 97.468 125.3 95.2298L134.044 68.1429C137.241 69.0785 140.624 69.2867 143.92 68.751C147.217 68.2153 150.335 66.9505 153.025 65.0583C155.715 63.1661 157.901 60.6994 159.407 57.8564C160.914 55.0135 161.699 51.8736 161.699 48.6893H191.459Z" fill="url(#paint3_radial_115_2)"/>
</g>
<path d="M91.2322 68.1444H114.548V142.216C114.548 149.063 112.932 155.011 109.7 160.06C106.504 165.108 102.055 168.998 96.353 171.731C90.6512 174.462 84.0232 175.828 76.4692 175.828C69.7505 175.828 63.6491 174.704 58.1652 172.456C52.7175 170.174 48.3957 166.716 45.1998 162.082C42.0038 157.414 40.424 151.553 40.4603 144.499H63.9396C64.0123 147.299 64.6115 149.703 65.7373 151.708C66.8995 153.679 68.4793 155.201 70.4768 156.272C72.5106 157.311 74.9075 157.829 77.6676 157.829C80.5731 157.829 83.0246 157.242 85.0219 156.065C87.0558 154.855 88.5993 153.092 89.6525 150.775C90.7057 148.457 91.2322 145.605 91.2322 142.216V68.1444Z" fill="#B691FD"/>
</g>
<defs>
<filter id="filter0_f_115_2" x="4.85619" y="107.707" width="146.87" height="104.635" filterUnits="userSpaceOnUse" color-interpolation-filters="sRGB">
<feFlood flood-opacity="0" result="BackgroundImageFix"/>
<feBlend mode="normal" in="SourceGraphic" in2="BackgroundImageFix" result="shape"/>
<feGaussianBlur stdDeviation="11.15" result="effect1_foregroundBlur_115_2"/>
</filter>
<filter id="filter1_f_115_2" x="103" y="26.3894" width="110.759" height="93.2893" filterUnits="userSpaceOnUse" color-interpolation-filters="sRGB">
<feFlood flood-opacity="0" result="BackgroundImageFix"/>
<feBlend mode="normal" in="SourceGraphic" in2="BackgroundImageFix" result="shape"/>
<feGaussianBlur stdDeviation="11.15" result="effect1_foregroundBlur_115_2"/>
</filter>
<filter id="filter2_dd_115_2" x="-4" y="0" width="228" height="224.271" filterUnits="userSpaceOnUse" color-interpolation-filters="sRGB">
<feFlood flood-opacity="0" result="BackgroundImageFix"/>
<feColorMatrix in="SourceAlpha" type="matrix" values="0 0 0 0 0 0 0 0 0 0 0 0 0 0 0 0 0 0 127 0" result="hardAlpha"/>
<feOffset dy="4"/>
<feGaussianBlur stdDeviation="2"/>
<feComposite in2="hardAlpha" operator="out"/>
<feColorMatrix type="matrix" values="0 0 0 0 0 0 0 0 0 0 0 0 0 0 0 0 0 0 0.25 0"/>
<feBlend mode="normal" in2="BackgroundImageFix" result="effect1_dropShadow_115_2"/>
<feColorMatrix in="SourceAlpha" type="matrix" values="0 0 0 0 0 0 0 0 0 0 0 0 0 0 0 0 0 0 127 0" result="hardAlpha"/>
<feOffset dy="4"/>
<feGaussianBlur stdDeviation="2"/>
<feComposite in2="hardAlpha" operator="out"/>
<feColorMatrix type="matrix" values="0 0 0 0 0 0 0 0 0 0 0 0 0 0 0 0 0 0 0.25 0"/>
<feBlend mode="normal" in2="effect1_dropShadow_115_2" result="effect2_dropShadow_115_2"/>
<feBlend mode="normal" in="SourceGraphic" in2="effect2_dropShadow_115_2" result="shape"/>
</filter>
<filter id="filter3_f_115_2" x="4.85631" y="107.707" width="146.87" height="104.635" filterUnits="userSpaceOnUse" color-interpolation-filters="sRGB">
<feFlood flood-opacity="0" result="BackgroundImageFix"/>
<feBlend mode="normal" in="SourceGraphic" in2="BackgroundImageFix" result="shape"/>
<feGaussianBlur stdDeviation="11.15" result="effect1_foregroundBlur_115_2"/>
</filter>
<filter id="filter4_f_115_2" x="103" y="26.3893" width="110.759" height="93.2893" filterUnits="userSpaceOnUse" color-interpolation-filters="sRGB">
<feFlood flood-opacity="0" result="BackgroundImageFix"/>
<feBlend mode="normal" in="SourceGraphic" in2="BackgroundImageFix" result="shape"/>
<feGaussianBlur stdDeviation="11.15" result="effect1_foregroundBlur_115_2"/>
</filter>
<radialGradient id="paint0_radial_115_2" cx="0" cy="0" r="1" gradientUnits="userSpaceOnUse" gradientTransform="translate(78.2914 141.353) rotate(75.8749) scale(48.8253 50.9928)">
<stop stop-color="white"/>
<stop offset="1" stop-color="#D91FF7"/>
</radialGradient>
<radialGradient id="paint1_radial_115_2" cx="0" cy="0" r="1" gradientUnits="userSpaceOnUse" gradientTransform="translate(140.324 48.6894) rotate(90) scale(48.6893 51.1351)">
<stop stop-color="white"/>
<stop offset="1" stop-color="#EBD0D0"/>
</radialGradient>
<radialGradient id="paint2_radial_115_2" cx="0" cy="0" r="1" gradientUnits="userSpaceOnUse" gradientTransform="translate(78.2915 141.353) rotate(75.8749) scale(48.8253 50.9928)">
<stop stop-color="white"/>
<stop offset="1" stop-color="#D91FF7"/>
</radialGradient>
<radialGradient id="paint3_radial_115_2" cx="0" cy="0" r="1" gradientUnits="userSpaceOnUse" gradientTransform="translate(140.324 48.6893) rotate(90) scale(48.6893 51.1351)">
<stop stop-color="white"/>
<stop offset="1" stop-color="#EBD0D0"/>
</radialGradient>
</defs>
</svg>
